# xmcd
#
# Track frame offsets:
#	150
#	14839
#	30803
#	51253
#	61079
#	72666
#	88279
#	106257
#	119179
#	133583
#	148347
#	162274
#	171539
#
# Disc length: 2458 seconds
#
# Revision: 0
# Processed by: cddbd v1.5.2PL0 Copyright (c) Steve Scherf et al.
# Submitted via: dBpowerAMP V4.0
#
DISCID=c809980d
DTITLE=Bo Weavil - Split-Up Blues
DYEAR=2009
DGENRE=Blues
TTITLE0=1 - A Mighty Long Time
TTITLE1=2 - Home Sweet Home
TTITLE2=3 - Keep On Puffin
TTITLE3=4 - Harmonica Stomp
TTITLE4=5 - Goodbye Baby
TTITLE5=6 - The End Of A Story
TTITLE6=7 - You Gotta Move Away
TTITLE7=8 - Slidin' The Zydeco
TTITLE8=9 - The Key To Yo' Door
TTITLE9=10 - Can't Find No Way
TTITLE10=11 - Train Is At The Station
TTITLE11=12 - Calimocho
TTITLE12=13 - Don't Leave Me Baby (Bonus Track)
EXTD=Boogie Matt Weavil - Vocal, SteelPhonic Guitar, Harmonica\nMiguel Hamoun - Electric Bass\nFranck Thomelet - Drums, Percussions\nGuest: Julien Broissant - Lead Guitar (1 and 7)
EXTT0=
EXTT1=
EXTT2=
EXTT3=
EXTT4=
EXTT5=
EXTT6=
EXTT7=
EXTT8=
EXTT9=
EXTT10=
EXTT11=
EXTT12=
PLAYORDER=
